<svg xmlns="http://www.w3.org/2000/svg" viewBox="0 0 409 50">
    <g  transform="matrix(0.9238098423979303,0,0,0.9238098423979303,-2.956192200484353,6.496384471348299)" fill="#111111">
        <path d="M27.08 20.44 c0.32 0 1.12 0.16 1.12 1.4 l0 3.16 c0 1.24 -0.8 1.36 -1.12 1.36 l-17.88 0 c-0.04 0 -0.08 12.28 -0.08 12.28 c0 1.24 -0.8 1.4 -1.12 1.4 l-3.68 0 c-0.32 0 -1.12 -0.16 -1.12 -1.4 l0.08 -15.44 c0.08 -0.36 0.24 -0.72 0.4 -1.04 c0.6 -0.96 1.6 -1.6 2.76 -1.68 z M27.28 7.039999999999999 c0.32 0 1.12 0.12 1.12 1.4 l0 3.16 c0 1.24 -0.8 1.36 -1.12 1.36 l-23 0 c-0.32 0 -1.08 -0.16 -1.08 -1.4 l0 -3.08 c0 -1.28 0.76 -1.44 1.08 -1.44 l23 0 z M65.169 9.96 c0.8 1 1.36 2.32 1.72 3.92 c0.32 1.56 0.52 3.48 0.52 5.68 l0 7.92 c0 2.24 -0.2 4.16 -0.52 5.72 c-0.36 1.6 -0.92 2.92 -1.72 3.96 c-0.8 1 -1.84 1.76 -3.12 2.2 c-1.24 0.44 -2.76 0.68 -4.52 0.68 l-9.76 0 c-1.76 0 -3.28 -0.24 -4.48 -0.68 c-1.28 -0.44 -2.32 -1.2 -3.12 -2.24 c-0.76 -1 -1.36 -2.32 -1.72 -3.92 c-0.36 -1.56 -0.52 -3.48 -0.52 -5.72 l0 -7.92 c0 -2.24 0.16 -4.12 0.52 -5.68 c0.36 -1.6 0.96 -2.92 1.72 -3.92 c0.8 -1 1.84 -1.76 3.12 -2.24 c1.24 -0.44 2.72 -0.68 4.48 -0.68 l9.76 0 c1.76 0 3.28 0.24 4.52 0.68 c1.28 0.48 2.32 1.24 3.12 2.24 z M61.449 18.88 c0 -1.16 -0.04 -2.16 -0.2 -2.96 c-0.12 -0.76 -0.36 -1.36 -0.68 -1.8 c-0.28 -0.4 -0.68 -0.68 -1.2 -0.88 c-0.52 -0.16 -1.2 -0.28 -2.04 -0.28 l-9.36 0 c-0.84 0 -1.52 0.12 -2.04 0.28 c-0.52 0.2 -0.92 0.48 -1.2 0.88 c-0.32 0.44 -0.52 1.04 -0.68 1.8 c-0.12 0.8 -0.2 1.8 -0.2 2.96 l0 9.32 c0 1.16 0.08 2.16 0.2 2.96 c0.16 0.72 0.36 1.36 0.68 1.76 c0.28 0.44 0.68 0.72 1.2 0.88 c0.52 0.2 1.2 0.28 2.04 0.28 l9.36 0 c0.84 0 1.52 -0.08 2.04 -0.28 c0.52 -0.16 0.92 -0.44 1.2 -0.88 c0.32 -0.4 0.56 -1.04 0.68 -1.76 c0.16 -0.8 0.2 -1.8 0.2 -2.96 l0 -9.32 z M104.978 38.28 c0.16 0.24 0.2 0.56 0.16 0.96 c-0.08 0.48 -0.44 0.8 -0.92 0.8 l-4.4 0 c-0.36 0 -0.64 -0.08 -0.84 -0.24 c-0.16 -0.12 -0.28 -0.32 -0.44 -0.56 l-7.24 -12.84 l-8.44 0 l0 12.24 c0 1.24 -0.76 1.4 -1.12 1.4 l-3.64 0 c-0.36 0 -1.16 -0.16 -1.16 -1.4 l0 -16.8 c0 -1.24 0.8 -1.36 1.16 -1.36 l17.4 0 c1.04 0 1.72 -0.28 2.12 -0.88 c0.44 -0.6 0.64 -1.56 0.64 -2.88 s-0.2 -2.28 -0.64 -2.88 c-0.4 -0.6 -1.08 -0.88 -2.12 -0.88 l-17.4 0 c-0.36 0 -1.16 -0.12 -1.16 -1.36 l0 -3.16 c0 -1.28 0.8 -1.4 1.16 -1.4 l18.44 0 c2.72 0 4.72 0.84 5.92 2.56 c1.08 1.64 1.68 3.96 1.76 7 l0 0.24 c-0.08 3.08 -0.68 5.4 -1.76 7 c-1 1.36 -2.52 2.2 -4.48 2.44 z M148.107 7.039999999999999 c1.32 0 2.24 0.44 2.72 1.28 c0.44 0.76 0.64 2.04 0.64 3.88 l0 26.44 c0 1.24 -0.8 1.4 -1.16 1.4 l-3.44 0 c-0.32 0 -1.12 -0.16 -1.12 -1.4 l0 -24.12 l-0.2 0 c-0.04 0 -0.08 0 -0.08 0.08 l-6.88 16.96 c-0.28 0.84 -0.56 1.56 -0.84 2.16 s-0.64 1.08 -0.96 1.48 c-0.36 0.4 -0.8 0.72 -1.28 0.88 c-0.44 0.16 -1 0.24 -1.6 0.24 l-1.64 0 c-0.6 0 -1.12 -0.08 -1.6 -0.24 s-0.88 -0.48 -1.28 -0.88 c-0.32 -0.4 -0.64 -0.88 -0.96 -1.48 c-0.28 -0.6 -0.56 -1.32 -0.84 -2.16 l-6.84 -16.92 c-0.04 -0.12 -0.08 -0.12 -0.12 -0.12 l-0.2 0 l0 24.12 c0 1.24 -0.76 1.4 -1.12 1.4 l-3.44 0 c-0.36 0 -1.16 -0.16 -1.16 -1.4 l0 -26.44 c0 -1.84 0.2 -3.12 0.64 -3.88 c0.48 -0.84 1.4 -1.28 2.76 -1.28 l3.68 0 c0.52 0 1 0.04 1.4 0.16 s0.8 0.32 1.12 0.6 c0.28 0.32 0.56 0.68 0.8 1.16 c0.2 0.48 0.44 1.08 0.68 1.84 l7.04 17.68 c0.04 0.16 0.12 0.16 0.12 0.16 l0.4 0 c0.04 0 0.08 0 0.12 -0.16 l7.08 -17.68 c0.24 -0.76 0.44 -1.36 0.68 -1.84 s0.52 -0.84 0.8 -1.16 c0.32 -0.28 0.68 -0.48 1.08 -0.6 s0.84 -0.16 1.4 -0.16 l3.6 0 z"></path>
    </g>
    <g  transform="matrix(0.5440156592413354,0,0,0.5440156592413354,157,0)" fill="#111111">
        <polygon xmlns="http://www.w3.org/2000/svg" points="15.081,64.633 37.24,86.144 79.92,42.182 57.762,20.678 "></polygon>
        <polygon xmlns="http://www.w3.org/2000/svg" points="31.516,92.047 9.356,70.535 0,100.869 "></polygon>
        <path xmlns="http://www.w3.org/2000/svg" d="M0,100.869"></path>
        <polygon xmlns="http://www.w3.org/2000/svg" points="77.841,0 63.5,14.768 85.659,36.279 100,21.504 "></polygon>
    </g>
    <g  transform="matrix(0.9215758814929149,0,0,0.9215758814929149,206.21974442101904,6.585832269095607)" fill="#111111">
        <path d="M50.929 32.84 c0.36 0 1.16 0.12 1.16 1.36 l0 4.4 c0 1.24 -0.8 1.36 -1.16 1.36 l-14.2 0 c-1.76 0 -3.24 -0.2 -4.48 -0.68 c-1.28 -0.44 -2.32 -1.16 -3.12 -2.2 c-0.76 -1 -1.36 -2.32 -1.72 -3.92 c-0.28 -1.32 -0.48 -2.92 -0.52 -4.8 l0 -0.2 l0.08 -5.04 c0.08 -0.36 0.24 -0.68 0.44 -1 c0.56 -1 1.56 -1.6 2.72 -1.68 l20.64 -0.04 c0.32 0 1.12 0.12 1.12 1.36 l0 3.16 c0 1.24 -0.8 1.4 -1.12 1.4 l-17.88 0 c-0.04 0 -0.08 2.88 -0.08 2.88 l0.08 0.68 c0.12 0.76 0.36 1.36 0.68 1.8 c0.32 0.4 0.68 0.68 1.2 0.88 c0.56 0.16 1.24 0.28 2.08 0.28 l14.08 0 z M50.969 6.960000000000001 c0.32 0 1.12 0.16 1.12 1.4 l0 3.16 c0 1.24 -0.8 1.4 -1.12 1.4 l-23 -0.04 c-0.32 0 -1.08 -0.12 -1.08 -1.36 l0 -3.12 c0 -1.28 0.76 -1.44 1.08 -1.44 l23 0 z M88.938 14.48 c0.4 1.68 0.6 3.68 0.6 5.92 l0 6.28 c0 2.24 -0.2 4.24 -0.6 5.92 s-1.08 3.08 -1.92 4.16 c-0.88 1.12 -2.04 1.96 -3.4 2.48 c-1.32 0.52 -2.96 0.8 -4.84 0.8 l-13.68 0 c-1.24 0 -2.4 -0.64 -3.04 -1.72 c-0.2 -0.36 -0.36 -0.8 -0.44 -1.24 l0.04 -27.32 c0.08 -0.32 0.24 -0.68 0.4 -1 c0.6 -0.96 1.6 -1.6 2.76 -1.68 l0 -0.04 l13.96 0 c1.88 0 3.48 0.28 4.84 0.8 s2.52 1.36 3.4 2.44 c0.84 1.12 1.52 2.52 1.92 4.2 z M67.498 33.88 c0 0.16 0.04 0.2 0.04 0.2 l11.12 0 c0.92 0 1.72 -0.08 2.36 -0.32 s1.12 -0.6 1.48 -1.08 c0.4 -0.52 0.68 -1.2 0.84 -2.08 s0.28 -2 0.28 -3.32 l0 -7.48 c0 -1.32 -0.12 -2.44 -0.28 -3.36 c-0.16 -0.84 -0.44 -1.52 -0.84 -2.04 c-0.36 -0.52 -0.84 -0.84 -1.48 -1.08 s-1.44 -0.36 -2.36 -0.36 l-11.08 0 c-0.04 0 -0.08 0.08 -0.08 0.24 l0 20.68 z M103.86699999999999 7.039999999999999 c0.32 0 1.12 0.16 1.12 1.4 l0 30.2 c0 1.24 -0.8 1.4 -1.12 1.4 l-3.68 0 c-0.32 0 -1.12 -0.16 -1.12 -1.4 l0 -30.2 c0 -1.24 0.8 -1.4 1.12 -1.4 l3.68 0 z M142.15599999999998 7.039999999999999 c0.36 0 1.16 0.12 1.16 1.36 l0 3.12 c0 1.32 -0.8 1.44 -1.16 1.44 l-10.28 0 l0 25.68 c0 1.24 -0.76 1.36 -1.12 1.36 l-3.68 0 c-0.32 0 -1.12 -0.12 -1.12 -1.36 l0 -25.68 l-10.28 0 c-0.36 0 -1.16 -0.12 -1.16 -1.44 l0 -3.12 c0 -1.24 0.8 -1.36 1.16 -1.36 l26.48 0 z M180.08499999999998 9.96 c0.8 1 1.36 2.32 1.72 3.92 c0.32 1.56 0.52 3.48 0.52 5.68 l0 7.92 c0 2.24 -0.2 4.16 -0.52 5.72 c-0.36 1.6 -0.92 2.92 -1.72 3.96 c-0.8 1 -1.84 1.76 -3.12 2.2 c-1.24 0.44 -2.76 0.68 -4.52 0.68 l-9.76 0 c-1.76 0 -3.28 -0.24 -4.48 -0.68 c-1.28 -0.44 -2.32 -1.2 -3.12 -2.24 c-0.76 -1 -1.36 -2.32 -1.72 -3.92 c-0.36 -1.56 -0.52 -3.48 -0.52 -5.72 l0 -7.92 c0 -2.24 0.16 -4.12 0.52 -5.68 c0.36 -1.6 0.96 -2.92 1.72 -3.92 c0.8 -1 1.84 -1.76 3.12 -2.24 c1.24 -0.44 2.72 -0.68 4.48 -0.68 l9.76 0 c1.76 0 3.28 0.24 4.52 0.68 c1.28 0.48 2.32 1.24 3.12 2.24 z M176.36499999999998 18.88 c0 -1.16 -0.04 -2.16 -0.2 -2.96 c-0.12 -0.76 -0.36 -1.36 -0.68 -1.8 c-0.28 -0.4 -0.68 -0.68 -1.2 -0.88 c-0.52 -0.16 -1.2 -0.28 -2.04 -0.28 l-9.36 0 c-0.84 0 -1.52 0.12 -2.04 0.28 c-0.52 0.2 -0.92 0.48 -1.2 0.88 c-0.32 0.44 -0.52 1.04 -0.68 1.8 c-0.12 0.8 -0.2 1.8 -0.2 2.96 l0 9.32 c0 1.16 0.08 2.16 0.2 2.96 c0.16 0.72 0.36 1.36 0.68 1.76 c0.28 0.44 0.68 0.72 1.2 0.88 c0.52 0.2 1.2 0.28 2.04 0.28 l9.36 0 c0.84 0 1.52 -0.08 2.04 -0.28 c0.52 -0.16 0.92 -0.44 1.2 -0.88 c0.32 -0.4 0.56 -1.04 0.68 -1.76 c0.16 -0.8 0.2 -1.8 0.2 -2.96 l0 -9.32 z M219.894 38.28 c0.16 0.24 0.2 0.56 0.16 0.96 c-0.08 0.48 -0.44 0.8 -0.92 0.8 l-4.4 0 c-0.36 0 -0.64 -0.08 -0.84 -0.24 c-0.16 -0.12 -0.28 -0.32 -0.44 -0.56 l-7.24 -12.84 l-8.44 0 l0 12.24 c0 1.24 -0.76 1.4 -1.12 1.4 l-3.64 0 c-0.36 0 -1.16 -0.16 -1.16 -1.4 l0 -16.8 c0 -1.24 0.8 -1.36 1.16 -1.36 l17.4 0 c1.04 0 1.72 -0.28 2.12 -0.88 c0.44 -0.6 0.64 -1.56 0.64 -2.88 s-0.2 -2.28 -0.64 -2.88 c-0.4 -0.6 -1.08 -0.88 -2.12 -0.88 l-17.4 0 c-0.36 0 -1.16 -0.12 -1.16 -1.36 l0 -3.16 c0 -1.28 0.8 -1.4 1.16 -1.4 l18.44 0 c2.72 0 4.72 0.84 5.92 2.56 c1.08 1.64 1.68 3.96 1.76 7 l0 0.24 c-0.08 3.08 -0.68 5.4 -1.76 7 c-1 1.36 -2.52 2.2 -4.48 2.44 z"></path>
    </g>
</svg>