<svg xmlns="http://www.w3.org/2000/svg"   viewBox="0 0 140 22" version="1.1">
    <g   fill="#192f45">
        <path d="M9.18 8.18 c0.38 0 0.68 0.28 0.68 0.66 c0 0.36 -0.3 0.66 -0.68 0.66 l-3.58 0 l0 1.34 l2.34 0 c0.36 0 0.66 0.3 0.66 0.68 c0 0.36 -0.3 0.66 -0.66 0.66 l-3 0 c-0.38 0 -0.68 -0.3 -0.68 -0.66 l0 -2.68 c0 -0.38 0.3 -0.66 0.68 -0.66 l4.24 0 l0 0 z M7.94 13.52 c0.36 0 0.66 0.3 0.66 0.66 c0 0.38 -0.3 0.68 -0.66 0.68 l-2.34 0 l0 4.68 c0 0.36 -0.3 0.66 -0.66 0.66 c-0.38 0 -0.68 -0.3 -0.68 -0.66 l0 -5.36 c0 -0.36 0.3 -0.66 0.68 -0.66 l3 0 l0 0 z M2.92 19.54 c0 0.36 -0.3 0.66 -0.66 0.66 c-0.38 0 -0.66 -0.3 -0.66 -0.66 l0 -13.38 c0 -0.36 0.28 -0.66 0.66 -0.66 l6.92 0 c0.38 0 0.68 0.3 0.68 0.66 c0 0.38 -0.3 0.68 -0.68 0.68 l-6.26 0 l0 12.7 l0 0 z M26.720000000000002 10.54 c0.1 0.36 -0.08 0.74 -0.44 0.84 c-0.36 0.12 -0.76 -0.08 -0.86 -0.44 c-0.42 -1.28 -1.22 -2.38 -2.32 -3.18 c-1.04 -0.74 -2.34 -1.2 -3.76 -1.2 c-8.34 0 -8.34 12.52 0 12.52 c1.42 0 2.72 -0.44 3.76 -1.2 c1.1 -0.78 1.9 -1.88 2.32 -3.18 c0.1 -0.36 0.5 -0.54 0.86 -0.44 s0.54 0.5 0.44 0.86 c-0.5 1.56 -1.5 2.92 -2.8 3.86 c-1.3 0.92 -2.86 1.48 -4.58 1.48 c-10.14 0 -10.14 -15.26 0 -15.26 c1.72 0 3.28 0.54 4.58 1.46 c1.3 0.96 2.3 2.3 2.8 3.88 l0 0 z M15.22 15.24 c-0.2 -0.34 -0.08 -0.72 0.24 -0.92 c0.34 -0.18 0.74 -0.08 0.92 0.26 c0.32 0.52 0.76 0.98 1.28 1.26 c0.48 0.3 1.06 0.48 1.68 0.48 c0.96 0 1.82 -0.38 2.42 -1.02 c0.64 -0.62 1.02 -1.5 1.02 -2.48 c0 -0.96 -0.38 -1.84 -1.02 -2.46 c-0.6 -0.62 -1.46 -1.02 -2.42 -1.02 c-0.62 0 -1.18 0.16 -1.68 0.46 c-0.52 0.3 -0.96 0.74 -1.28 1.26 c-0.18 0.34 -0.58 0.46 -0.92 0.28 c-0.32 -0.18 -0.44 -0.6 -0.24 -0.94 c0.42 -0.74 1.02 -1.36 1.74 -1.78 s1.54 -0.64 2.38 -0.64 c1.34 0 2.54 0.54 3.42 1.42 c0.84 0.88 1.38 2.08 1.38 3.42 s-0.54 2.54 -1.38 3.42 c-0.88 0.9 -2.08 1.44 -3.42 1.44 c-0.84 0 -1.66 -0.24 -2.38 -0.64 c-0.72 -0.44 -1.32 -1.06 -1.74 -1.8 l0 0 z M35.16 12.18 c-0.18 0 -0.44 0.02 -0.66 0 c-1.04 -0.06 -1.08 -1.32 0 -1.32 c0.62 0 1.36 0.1 1.36 -0.68 c0 -0.4 -0.32 -0.68 -0.7 -0.68 l-2.38 0 c-0.88 0 -0.88 -1.34 0 -1.34 l2.38 0 c1.22 0 2.02 1.02 2.02 2.04 c0 1.12 -0.92 1.98 -2.02 1.98 l0 0 z M36.4 19.14 c0.5 0.72 -0.58 1.5 -1.1 0.78 l-1.84 -2.66 l0 2.28 c0 0.88 -1.34 0.88 -1.34 0 l0 -4.36 c0 -0.72 0.84 -0.92 1.22 -0.42 l3.06 4.38 l0 0 z M30.78 19.54 c0 0.88 -1.34 0.88 -1.34 0 l0 -13.38 c0 -0.36 0.32 -0.66 0.68 -0.66 l5.26 0 c4.1 0 6.16 5.02 3.28 7.98 c-0.58 0.58 -1.3 1.02 -2.1 1.22 l3.1 4.44 c0.5 0.72 -0.6 1.5 -1.08 0.78 l-3.7 -5.3 c-0.4 -0.52 0 -1.1 0.5 -1.1 c2.94 0 4.38 -3.64 2.32 -5.72 c-0.6 -0.6 -1.42 -0.96 -2.32 -0.96 l-4.6 0 l0 12.7 l0 0 z M53.96 19.52 c0 0.38 -0.3 0.68 -0.68 0.68 s-0.68 -0.3 -0.68 -0.68 l0 -6.3 l-2.74 3.94 c-0.22 0.3 -0.66 0.38 -0.96 0.18 c-0.06 -0.06 -0.12 -0.12 -0.16 -0.18 l-2.74 -3.94 l0 6.3 c0 0.38 -0.3 0.68 -0.7 0.68 c-0.36 0 -0.66 -0.3 -0.66 -0.68 l0 -8.46 l0 0 c0 -0.2 0.1 -0.42 0.28 -0.54 c0.3 -0.22 0.74 -0.14 0.96 0.16 l3.4 4.92 l3.44 -4.9 c0.12 -0.18 0.32 -0.3 0.56 -0.3 c0.38 0 0.68 0.3 0.68 0.66 l0 8.46 l0 0 z M43.28 19.52 c0 0.38 -0.3 0.68 -0.68 0.68 s-0.68 -0.3 -0.68 -0.68 l0 -13.56 c0 -0.38 0.3 -0.68 0.68 -0.68 s0.68 0.3 0.68 0.68 l0 13.56 l0 0 z M56.68 19.52 c0 0.38 -0.3 0.68 -0.7 0.68 c-0.36 0 -0.66 -0.3 -0.66 -0.68 l0 -13.56 c0 -0.38 0.3 -0.68 0.66 -0.68 c0.4 0 0.7 0.3 0.7 0.68 l0 13.56 l0 0 z M52.980000000000004 5.5600000000000005 c0.22 -0.3 0.64 -0.38 0.96 -0.16 c0.3 0.22 0.36 0.64 0.16 0.94 l-4.24 6.08 c-0.22 0.32 -0.66 0.4 -0.96 0.16 c-0.06 -0.04 -0.12 -0.1 -0.16 -0.18 l-4.24 -6.06 c-0.2 -0.3 -0.14 -0.72 0.16 -0.94 s0.74 -0.14 0.96 0.16 l3.66 5.3 l3.7 -5.3 l0 0 z M73.16 8.18 c0.38 0 0.68 0.28 0.68 0.66 c0 0.36 -0.3 0.66 -0.68 0.66 l-3.58 0 l0 1.34 l2.34 0 c0.38 0 0.68 0.3 0.68 0.68 c0 0.36 -0.3 0.66 -0.68 0.66 l-3 0 c-0.38 0 -0.68 -0.3 -0.68 -0.66 l0 -2.68 c0 -0.38 0.3 -0.66 0.68 -0.66 l4.24 0 l0 0 z M71.92 13.52 c0.38 0 0.68 0.3 0.68 0.66 c0 0.38 -0.3 0.68 -0.68 0.68 l-2.34 0 l0 1.32 l3.58 0 c0.38 0 0.68 0.3 0.68 0.68 c0 0.36 -0.3 0.66 -0.68 0.66 l-4.24 0 c-0.38 0 -0.68 -0.3 -0.68 -0.66 l0 -2.68 c0 -0.36 0.3 -0.66 0.68 -0.66 l3 0 l0 0 z M73.16 18.86 c0.38 0 0.68 0.3 0.68 0.68 c0 0.36 -0.3 0.66 -0.68 0.66 l-6.92 0 c-0.36 0 -0.66 -0.3 -0.66 -0.66 l0 -13.38 c0 -0.36 0.3 -0.66 0.66 -0.66 l6.92 0 c0.38 0 0.68 0.3 0.68 0.66 c0 0.38 -0.3 0.68 -0.68 0.68 l-6.24 0 l0 12.02 l6.24 0 l0 0 z M81.18 17.54 l-1.32 0 c-0.36 0 -0.66 -0.3 -0.66 -0.68 c0 -0.36 0.3 -0.66 0.66 -0.66 l1.32 0 c1.98 0 3.24 -1.46 3.24 -3.36 c0 -1.88 -1.26 -3.34 -3.24 -3.34 l-0.66 0 l0 4.68 c0 0.38 -0.28 0.68 -0.66 0.68 c-0.36 0 -0.66 -0.3 -0.66 -0.68 l0 -5.34 c0 -0.38 0.3 -0.68 0.66 -0.68 l1.32 0 c2.74 0 4.56 2.06 4.56 4.68 c0 2.64 -1.82 4.7 -4.56 4.7 l0 0 z M77.86 19.54 c0 0.36 -0.3 0.66 -0.68 0.66 c-0.36 0 -0.66 -0.3 -0.66 -0.66 l0 -13.38 c0 -0.36 0.3 -0.66 0.66 -0.66 l4 0 c4.34 0 7.36 3.12 7.36 7.34 c0 4.24 -3.02 7.36 -7.36 7.36 l-1.34 0 c-0.36 0 -0.66 -0.3 -0.66 -0.66 c0 -0.38 0.3 -0.68 0.66 -0.68 l1.34 0 c3.58 0 6.02 -2.52 6.02 -6.02 c0 -3.48 -2.44 -6 -6.02 -6 l-3.32 0 l0 12.7 l0 0 z M95.24000000000001 19.54 c0 0.36 -0.3 0.66 -0.66 0.66 c-0.38 0 -0.68 -0.3 -0.68 -0.66 l0 -13.38 c0 -0.36 0.3 -0.66 0.68 -0.66 c0.36 0 0.66 0.3 0.66 0.66 l0 13.38 l0 0 z M92.56 19.54 c0 0.36 -0.3 0.66 -0.66 0.66 c-0.38 0 -0.68 -0.3 -0.68 -0.66 l0 -13.38 c0 -0.36 0.3 -0.66 0.68 -0.66 c0.36 0 0.66 0.3 0.66 0.66 l0 13.38 l0 0 z M107.28 8.18 c0.36 0 0.64 0.3 0.64 0.68 c0 0.36 -0.28 0.64 -0.64 0.64 l-2.68 0 l0 10.02 c0 0.38 -0.3 0.68 -0.68 0.68 c-0.36 0 -0.66 -0.3 -0.66 -0.68 l0 -10.66 c0 -0.38 0.3 -0.68 0.66 -0.68 l3.36 0 l0 0 z M97.94 6.84 c-0.38 0 -0.68 -0.3 -0.68 -0.66 c0 -0.38 0.3 -0.66 0.68 -0.66 l9.34 0 c0.36 0 0.64 0.28 0.64 0.66 c0 0.36 -0.28 0.66 -0.64 0.66 l-9.34 0 l0 0 z M97.94 9.5 c-0.38 0 -0.68 -0.28 -0.68 -0.64 c0 -0.38 0.3 -0.68 0.68 -0.68 l3.32 0 c0.38 0 0.68 0.3 0.68 0.68 l0 10.66 c0 0.38 -0.3 0.68 -0.68 0.68 c-0.36 0 -0.68 -0.3 -0.68 -0.68 l0 -10.02 l-2.64 0 l0 0 z M124.12 10.54 c0.1 0.36 -0.08 0.74 -0.44 0.84 c-0.36 0.12 -0.76 -0.08 -0.86 -0.44 c-0.42 -1.28 -1.22 -2.38 -2.32 -3.18 c-1.04 -0.74 -2.34 -1.2 -3.76 -1.2 c-8.34 0 -8.34 12.52 0 12.52 c1.42 0 2.72 -0.44 3.76 -1.2 c1.1 -0.78 1.9 -1.88 2.32 -3.18 c0.1 -0.36 0.5 -0.54 0.86 -0.44 s0.54 0.5 0.44 0.86 c-0.5 1.56 -1.5 2.92 -2.8 3.86 c-1.3 0.92 -2.86 1.48 -4.58 1.48 c-10.14 0 -10.14 -15.26 0 -15.26 c1.72 0 3.28 0.54 4.58 1.46 c1.3 0.96 2.3 2.3 2.8 3.88 l0 0 z M112.62 15.24 c-0.2 -0.34 -0.08 -0.72 0.24 -0.92 c0.34 -0.18 0.74 -0.08 0.92 0.26 c0.32 0.52 0.76 0.98 1.28 1.26 c0.48 0.3 1.06 0.48 1.68 0.48 c0.96 0 1.82 -0.38 2.42 -1.02 c0.64 -0.62 1.02 -1.5 1.02 -2.48 c0 -0.96 -0.38 -1.84 -1.02 -2.46 c-0.6 -0.62 -1.46 -1.02 -2.42 -1.02 c-0.62 0 -1.18 0.16 -1.68 0.46 c-0.52 0.3 -0.96 0.74 -1.28 1.26 c-0.18 0.34 -0.58 0.46 -0.92 0.28 c-0.32 -0.18 -0.44 -0.6 -0.24 -0.94 c0.42 -0.74 1.02 -1.36 1.74 -1.78 s1.54 -0.64 2.38 -0.64 c1.34 0 2.54 0.54 3.42 1.42 c0.84 0.88 1.38 2.08 1.38 3.42 s-0.54 2.54 -1.38 3.42 c-0.88 0.9 -2.08 1.44 -3.42 1.44 c-0.84 0 -1.66 -0.24 -2.38 -0.64 c-0.72 -0.44 -1.32 -1.06 -1.74 -1.8 l0 0 z M132.56 12.18 c-0.18 0 -0.44 0.02 -0.66 0 c-1.04 -0.06 -1.08 -1.32 0 -1.32 c0.62 0 1.36 0.1 1.36 -0.68 c0 -0.4 -0.32 -0.68 -0.7 -0.68 l-2.38 0 c-0.88 0 -0.88 -1.34 0 -1.34 l2.38 0 c1.22 0 2.02 1.02 2.02 2.04 c0 1.12 -0.92 1.98 -2.02 1.98 l0 0 z M133.8 19.14 c0.5 0.72 -0.58 1.5 -1.1 0.78 l-1.84 -2.66 l0 2.28 c0 0.88 -1.34 0.88 -1.34 0 l0 -4.36 c0 -0.72 0.84 -0.92 1.22 -0.42 l3.06 4.38 l0 0 z M128.18 19.54 c0 0.88 -1.34 0.88 -1.34 0 l0 -13.38 c0 -0.36 0.32 -0.66 0.68 -0.66 l5.26 0 c4.1 0 6.16 5.02 3.28 7.98 c-0.58 0.58 -1.3 1.02 -2.1 1.22 l3.1 4.44 c0.5 0.72 -0.6 1.5 -1.08 0.78 l-3.7 -5.3 c-0.4 -0.52 0 -1.1 0.5 -1.1 c2.94 0 4.38 -3.64 2.32 -5.72 c-0.6 -0.6 -1.42 -0.96 -2.32 -0.96 l-4.6 0 l0 12.7 l0 0 z"></path>
    </g>
</svg>